<?xml version="1.0" encoding="UTF-8"?>
<!DOCTYPE svg PUBLIC "-//W3C//DTD SVG 1.1//EN" "http://www.w3.org/Graphics/SVG/1.1/DTD/svg11.dtd">
<!-- Creator: CorelDRAW X8 -->
<svg xmlns="http://www.w3.org/2000/svg" xml:space="preserve" width="98.2672mm" height="48.0224mm" version="1.1" style="shape-rendering:geometricPrecision; text-rendering:geometricPrecision; image-rendering:optimizeQuality; fill-rule:evenodd; clip-rule:evenodd"
viewBox="0 0 15396 7524"
 xmlns:xlink="http://www.w3.org/1999/xlink">
 <defs>
  <style type="text/css">
   <![CDATA[
    .fil1 {fill:#636363}
    .fil0 {fill:#636363;fill-rule:nonzero}
   ]]>
  </style>
 </defs>
 <g id="Слой_x0020_1">
  <metadata id="CorelCorpID_0Corel-Layer"/>
  <path class="fil0" d="M1818 7445l0 -1190 -203 0 0 -49 1087 0 17 389 -44 0c0,-12 -11,-57 -33,-132 -22,-76 -56,-130 -98,-161 -44,-31 -117,-47 -219,-47l-280 0 0 558 53 0c57,0 101,-4 134,-12 32,-7 61,-29 85,-64 24,-35 38,-91 43,-166l49 0 0 546 -49 0c-5,-82 -18,-142 -38,-179 -21,-37 -48,-59 -80,-67 -32,-9 -80,-13 -144,-13l-53 0 0 587 227 0 0 49 -657 0 0 -49 203 0z"/>
  <path id="1" class="fil0" d="M3954 6255l-210 0 0 -49 460 0 0 49 -203 0 0 779c0,112 -8,196 -25,249 -17,54 -48,99 -93,136 -45,37 -98,63 -161,80 -62,16 -127,25 -193,25 -141,0 -244,-23 -310,-66 -65,-45 -105,-99 -120,-164 -15,-65 -23,-151 -23,-260l0 -779 -186 0 0 -49 616 0 0 49 -203 0 0 757c0,104 5,186 14,246 10,59 36,109 78,148 42,40 109,60 201,60 74,0 141,-15 199,-46 60,-30 101,-71 124,-122 23,-51 35,-147 35,-286l0 -757z"/>
  <path id="2" class="fil0" d="M4605 7445l0 -1190 -203 0 0 -49 706 0c92,0 168,8 227,24 59,16 111,49 153,99 43,50 65,108 65,174 0,81 -31,147 -94,197 -63,51 -169,89 -319,115l0 4c107,22 196,63 265,123 68,61 103,164 103,310 0,83 9,136 29,160 20,23 47,35 81,35 23,0 50,-5 81,-14l0 48c-56,19 -110,28 -162,28 -105,0 -180,-29 -223,-88 -44,-59 -65,-117 -64,-173l4 -163c0,-57 -18,-113 -54,-169 -36,-55 -118,-83 -247,-83l-120 0 0 612 203 0 0 49 -634 0 0 -49 203 0zm228 -1190l0 533 173 0c75,0 131,-5 170,-15 39,-10 70,-36 94,-78 23,-42 35,-109 35,-200 0,-75 -12,-130 -36,-164 -23,-35 -52,-56 -85,-64 -34,-8 -78,-12 -133,-12l-218 0z"/>
  <polygon id="3" class="fil0" points="6991,6255 6991,7524 6952,7524 6103,6249 6100,6249 6100,7445 6318,7445 6318,7494 5859,7494 5859,7445 6051,7445 6051,6255 5846,6255 5846,6206 6338,6206 6938,7109 6942,7109 6942,6255 6729,6255 6729,6206 7186,6206 7186,6255 "/>
  <polygon id="4" class="fil0" points="7567,7445 7567,6255 7356,6255 7356,6206 8007,6206 8007,6255 7795,6255 7795,7445 8007,7445 8007,7494 7356,7494 7356,7445 "/>
  <path id="5" class="fil0" d="M8188 6206l1098 0 34 438 -49 0c-30,-147 -70,-249 -119,-305 -50,-56 -115,-84 -196,-84l-105 0 0 1190 231 0 0 49 -689 0 0 -49 231 0 0 -1190 -105 0c-81,0 -146,28 -196,84 -49,56 -89,158 -119,305l-49 0 33 -438z"/>
  <path id="6" class="fil0" d="M10550 6255l-211 0 0 -49 461 0 0 49 -203 0 0 779c0,112 -9,196 -26,249 -17,54 -47,99 -92,136 -45,37 -99,63 -161,80 -63,16 -127,25 -194,25 -141,0 -244,-23 -309,-66 -66,-45 -106,-99 -121,-164 -15,-65 -22,-151 -22,-260l0 -779 -187 0 0 -49 616 0 0 49 -202 0 0 757c0,104 4,186 14,246 9,59 35,109 78,148 42,40 109,60 200,60 75,0 141,-15 200,-46 59,-30 100,-71 124,-122 23,-51 35,-147 35,-286l0 -757z"/>
  <path id="7" class="fil0" d="M11200 7445l0 -1190 -202 0 0 -49 706 0c92,0 168,8 227,24 59,16 110,49 153,99 43,50 64,108 64,174 0,81 -31,147 -94,197 -62,51 -169,89 -319,115l0 4c108,22 196,63 265,123 69,61 103,164 103,310 0,83 10,136 30,160 19,23 46,35 81,35 22,0 49,-5 81,-14l0 48c-56,19 -110,28 -162,28 -106,0 -180,-29 -224,-88 -43,-59 -64,-117 -63,-173l4 -163c0,-57 -18,-113 -55,-169 -36,-55 -118,-83 -246,-83l-120 0 0 612 203 0 0 49 -634 0 0 -49 202 0zm229 -1190l0 533 173 0c74,0 131,-5 170,-15 39,-10 70,-36 94,-78 23,-42 34,-109 34,-200 0,-75 -11,-130 -35,-164 -24,-35 -52,-56 -86,-64 -34,-8 -78,-12 -132,-12l-218 0z"/>
  <path id="8" class="fil0" d="M12902 6255l0 552 116 0c41,0 76,-4 104,-12 29,-8 54,-30 77,-65 23,-35 36,-90 39,-165l50 0 0 546 -50 0c-5,-104 -25,-173 -60,-205 -35,-33 -88,-50 -160,-50l-116 0 0 589 262 0c149,0 251,-31 309,-94 57,-62 91,-158 102,-288l49 0 -12 431 -1143 0 0 -49 205 0 0 -1190 -205 0 0 -49 1096 0 22 344 -49 0c-17,-105 -51,-180 -103,-226 -52,-46 -138,-69 -259,-69l-274 0z"/>
  <polygon class="fil1" points="4134,567 4530,5 3524,0 1998,1983 955,1971 955,1 0,1 1,4565 955,4564 968,2587 2000,2582 3541,4565 4645,4557 3743,3412 2864,2270 "/>
  <path class="fil1" d="M8933 2917c326,-2530 -3452,-2840 -3702,-498 -276,2599 3390,2924 3702,498zm-2094 -1617c-647,155 -743,918 -694,1652 47,714 389,1295 1171,1109 621,-147 738,-896 690,-1632 -47,-718 -362,-1321 -1167,-1129z"/>
  <polygon class="fil1" points="10046,4562 11019,4562 11018,4 10046,3 "/>
  <path class="fil1" d="M11934 4084c374,213 557,305 1072,413 698,127 1909,118 2272,-594 712,-1386 -2035,-1506 -2289,-1971 -304,-556 796,-845 1926,-187l256 -443c-1220,-741 -2990,-621 -3085,421 -42,459 294,737 564,897 733,433 1929,561 1744,1123 -112,338 -735,344 -1139,275 -640,-123 -746,-217 -1066,-386 -68,135 -172,311 -255,452z"/>
 </g>
</svg>
