<?xml version="1.0" encoding="utf-8"?>
<!-- Generator: Adobe Illustrator 21.0.0, SVG Export Plug-In . SVG Version: 6.00 Build 0)  -->
<svg version="1.1" id="Capa_1" xmlns="http://www.w3.org/2000/svg" xmlns:xlink="http://www.w3.org/1999/xlink" x="0px" y="0px"
	 viewBox="0 0 28 24" style="enable-background:new 0 0 28 24;" xml:space="preserve">
<style type="text/css">
	.st0{fill:#6D7073;}
</style>
<g>
	<path class="st0" d="M21.5,18.8L20.4,6.8c0-0.3-0.2-0.5-0.5-0.5h-2.2c0-2-1.7-3.6-3.7-3.6s-3.7,1.6-3.7,3.6H8.1
		c-0.3,0-0.5,0.2-0.5,0.5L6.5,18.8c0,0,0,0,0,0c0,1.4,1.3,2.5,2.8,2.5h9.4C20.2,21.4,21.5,20.2,21.5,18.8
		C21.5,18.9,21.5,18.8,21.5,18.8z M14,3.7c1.5,0,2.6,1.2,2.7,2.6h-5.3C11.4,4.8,12.5,3.7,14,3.7z M18.7,20.3H9.3
		c-1,0-1.8-0.6-1.8-1.4l1-11.6h1.7v1.6c0,0.3,0.2,0.5,0.5,0.5c0.3,0,0.5-0.2,0.5-0.5V7.3h5.3v1.6c0,0.3,0.2,0.5,0.5,0.5
		s0.5-0.2,0.5-0.5V7.3h1.7l1,11.6C20.4,19.7,19.6,20.3,18.7,20.3z"/>
</g>
</svg>
